<mxfile host="app.diagrams.net" modified="2023-03-31T02:40:56.507Z" agent="Mozilla/5.0 (Macintosh; Intel Mac OS X 10_15_7) AppleWebKit/537.36 (KHTML, like Gecko) Chrome/111.0.0.0 Safari/537.36" version="21.1.2" etag="RUfHU7dNt8W_7lBa_cE9" type="github">
  <diagram name="第 1 页" id="QY59lzluNyZBN2Q5M5Et">
    <mxGraphModel>
      <root>
        <mxCell id="0" />
        <mxCell id="1" parent="0" />
      </root>
    </mxGraphModel>
  </diagram>
</mxfile>
